:SAMPLES-PER-SECOND 30
:FULLY-SPECIFIED
:DEGREES
1366
root  -52.7101 38.3335 11.131 -149.661 -84.9082 160.202
RightUpLeg  -35.2847 -32.5533 -6.3382
RightLeg  7.95327 -26.0092 4.27456
RightFoot  -6.42717 -0.243804 4.58391
RightToes  -1.81608e-008 0 -3.6325e-017
Spine  40.6735 1.17964 -14.2103
Spine1  -16.8522 -4.26802 18.9634
HEad  -37.2767 -12.1446 7.72411
LeftShoulder1  1.45453 -2.66635 -16.8794
LeftArm  3.96 -31.3494 -67.7849
LeftForeArm  4.23093 -46.9535 -11.7095
LeftHand  -0.0241976 5.12087 -3.67691
RightShoulder  -0.209143 -4.18114 23.3694
RightArm  -23.0745 -7.31433 24.2974
RightForeArm  17.2106 75.6927 54.0552
RightHand  -0.278628 5.69637 -3.23615
LeftUpLeg  -11.0845 15.9314 18.2919
LeftLeg  -2.23259 -5.83667 -1.07738
LeftFoot  2.12982 3.05977 -25.64
LeftToes  1.81866e-011 -6.13092e-011 2.52013e-011
1367
root  -52.232 38.6235 11.7626 -160.584 -82.4599 171.008
RightUpLeg  -49.7623 -52.6793 15.2061
RightLeg  19.1361 -4.15869 -1.84186
RightFoot  -6.63996 -0.153449 2.62522
RightToes  -1.81608e-008 0 -3.6325e-017
Spine  39.2473 0.688058 -13.6763
Spine1  -17.3777 -4.28931 18.3237
HEad  -37.6551 -12.1074 7.97756
LeftShoulder1  1.44444 -2.52807 -17.2906
LeftArm  4.53537 -30.6258 -67.5435
LeftForeArm  4.36577 -46.9183 -11.6861
LeftHand  -0.0318845 5.29159 -3.806
RightShoulder  -0.264608 -4.34929 24.0374
RightArm  -22.3545 -7.66221 23.6102
RightForeArm  17.0876 75.6494 53.8807
RightHand  -0.264333 5.37504 -3.15531
LeftUpLeg  -10.4454 15.6095 18.1317
LeftLeg  -2.69806 -2.80463 -0.94069
LeftFoot  3.15975 3.09847 -24.1769
LeftToes  1.81866e-011 -6.13092e-011 2.52013e-011
1368
root  -51.8654 38.7947 12.1913 -168.195 -79.3142 177.869
RightUpLeg  -47.1469 -51.0736 11.8169
RightLeg  29.2944 -2.39444 -1.78548
RightFoot  -7.99855 -0.0964213 1.47172
RightToes  -1.81608e-008 0 -3.6325e-017
Spine  37.7879 0.730656 -13.3867
Spine1  -16.8675 -4.00314 18.1508
HEad  -38.1561 -11.1233 7.68815
LeftShoulder1  1.36179 -2.09151 -17.7062
LeftArm  5.59037 -30.3643 -67.0919
LeftForeArm  2.45836 -46.4958 -11.6429
LeftHand  -0.0371595 5.23779 -3.09271
RightShoulder  -0.254815 -4.32372 23.791
RightArm  -22.0182 -6.42295 23.7041
RightForeArm  12.8971 74.6899 48.7927
RightHand  -0.202211 4.99488 -2.56361
LeftUpLeg  -9.06131 15.7127 18.6431
LeftLeg  -2.26175 0.00819825 -0.946171
LeftFoot  3.39898 3.01357 -23.1731
LeftToes  1.81866e-011 -6.13092e-011 2.52013e-011
1369
root  -51.5575 38.8707 12.4825 -170.057 -75.9079 179.06
RightUpLeg  -43.5732 -49.643 7.66189
RightLeg  38.8154 -2.49818 -2.51863
RightFoot  -9.89042 -0.0626962 -0.768753
RightToes  -1.81608e-008 0 -3.6325e-017
Spine  36.425 0.99273 -13.2761
Spine1  -17.1335 -3.44438 18.3159
HEad  -37.8531 -11.025 7.61969
LeftShoulder1  1.3872 -2.04741 -18.4134
LeftArm  5.50852 -28.8139 -66.9084
LeftForeArm  2.56312 -46.5345 -11.6521
LeftHand  -0.0410401 5.49086 -2.96648
RightShoulder  -0.30239 -4.48555 23.6311
RightArm  -20.8306 -5.93909 22.8252
RightForeArm  11.5733 74.4918 48.1315
RightHand  -0.212321 4.95937 -2.68088
LeftUpLeg  -7.51627 15.5018 18.7533
LeftLeg  -2.03326 3.30649 -0.844006
LeftFoot  3.38275 2.99081 -23.0307
LeftToes  1.81866e-011 -6.13092e-011 2.52013e-011
1370
root  -51.2673 38.9154 12.698 -168.725 -73.0648 177.032
RightUpLeg  -40.2698 -50.2893 4.70088
RightLeg  45.2164 -5.38081 -6.06378
RightFoot  -12.898 -0.147507 -4.23886
RightToes  -1.81608e-008 0 -3.6325e-017
Spine  35.3122 0.51922 -12.5243
Spine1  -17.4316 -3.5098 17.3732
HEad  -37.7059 -11.6772 8.02418
LeftShoulder1  1.3739 -1.98012 -18.4901
LeftArm  5.36211 -27.7818 -66.6501
LeftForeArm  2.14445 -46.2229 -11.5512
LeftHand  -0.0377213 5.38056 -2.73386
RightShoulder  -0.334593 -4.57999 23.9814
RightArm  -20.3513 -5.34861 22.9453
RightForeArm  9.0982 73.6973 44.7886
RightHand  -0.19508 4.53661 -2.56713
LeftUpLeg  -6.31 15.1481 18.1666
LeftLeg  -1.80059 6.07043 -1.0015
LeftFoot  3.61721 2.93356 -22.2645
LeftToes  1.81866e-011 -6.13092e-011 2.52013e-011
1371
root  -50.9852 38.9728 12.8617 -167.273 -70.0058 174.861
RightUpLeg  -35.2638 -51.9435 2.1142
RightLeg  44.9665 -8.74343 -9.42342
RightFoot  -15.6834 -0.371614 -7.11148
RightToes  -1.81608e-008 0 -3.6325e-017
Spine  34.7086 0.214704 -11.9094
Spine1  -17.8979 -3.62719 17.3603
HEad  -37.6133 -12.1508 8.59184
LeftShoulder1  1.34232 -2.10582 -17.2547
LeftArm  3.62031 -25.4916 -67.3656
LeftForeArm  2.60264 -46.4729 -11.6233
LeftHand  -0.0350889 5.66939 -3.47947
RightShoulder  -0.248814 -4.30218 23.6884
RightArm  -19.933 -6.01965 23.3685
RightForeArm  10.9074 73.9808 45.6924
RightHand  -0.183732 4.50427 -2.45067
LeftUpLeg  -4.66134 14.8727 17.4827
LeftLeg  -2.31213 8.94225 -1.53575
LeftFoot  4.07466 2.94512 -21.7142
LeftToes  1.81866e-011 -6.13092e-011 2.52013e-011
1372
root  -50.7121 38.9361 12.9187 -164.761 -66.1585 171.665
RightUpLeg  -28.9849 -53.3348 -1.0735
RightLeg  38.5865 -12.1459 -10.5757
RightFoot  -16.5674 -0.339836 -4.76125
RightToes  -1.81608e-008 0 -3.6325e-017
Spine  33.7258 -0.169654 -10.577
Spine1  -17.7629 -3.56928 15.3881
HEad  -38.4468 -12.414 8.36763
LeftShoulder1  1.18392 -1.54217 -16.7782
LeftArm  4.28079 -24.9599 -67.099
LeftForeArm  2.07231 -46.9313 -11.8543
LeftHand  -0.0336756 5.51628 -2.84861
RightShoulder  -0.399553 -4.77175 24.5347
RightArm  -19.6695 -5.95446 22.9622
RightForeArm  11.4693 74.3337 47.2932
RightHand  -0.209378 5.49641 -2.56108
LeftUpLeg  -2.98033 14.4429 16.276
LeftLeg  -2.62859 12.4061 -2.25055
LeftFoot  4.30468 2.94188 -21.3806
LeftToes  1.81866e-011 -6.13092e-011 2.52013e-011
1373
root  -50.3714 38.6786 12.8931 -160.089 -62.088 166.719
RightUpLeg  -26.9518 -54.9556 -4.03574
RightLeg  33.8744 -10.1506 -7.40485
RightFoot  -15.2039 0.115342 5.65153
RightToes  -1.81608e-008 0 -3.6325e-017
Spine  33.0146 -0.281915 -10.8078
Spine1  -19.111 -3.44937 14.4472
HEad  -39.0803 -12.3916 7.53917
LeftShoulder1  0.988 -0.653185 -17.066
LeftArm  5.15676 -24.6779 -66.4527
LeftForeArm  2.00243 -47.7148 -12.2002
LeftHand  -0.0366863 5.5822 -2.11075
RightShoulder  -0.288599 -4.44047 23.6388
RightArm  -19.5559 -7.74952 23.6869
RightForeArm  15.3893 75.1916 51.1952
RightHand  -0.252994 4.52425 -3.2415
LeftUpLeg  -4.11743 14.0347 13.8744
LeftLeg  1.03046 15.6564 -2.23691
LeftFoot  2.95142 2.67474 -21.2844
LeftToes  1.81866e-011 -6.13092e-011 2.52013e-011
1374
root  -49.9914 38.4285 13.0937 -159.039 -56.6971 165.274
RightUpLeg  -33.1379 -53.9642 -3.30423
RightLeg  37.9278 -6.58854 -5.78169
RightFoot  -12.7153 -0.0839311 0.916467
RightToes  -1.81608e-008 0 -3.6325e-017
Spine  33.141 -0.546201 -7.50022
Spine1  -20.2207 -2.70098 9.9254
HEad  -40.8749 -12.8722 8.01915
LeftShoulder1  0.907369 -0.424543 -16.3496
LeftArm  5.18975 -24.832 -67.2706
LeftForeArm  2.45505 -48.4442 -12.4924
LeftHand  -0.0350623 5.53825 -2.00175
RightShoulder  -0.348708 -4.6108 24.4757
RightArm  -20.1435 -8.94887 23.2417
RightForeArm  20.466 76.1454 56.6189
RightHand  -0.229128 4.64263 -2.94234
LeftUpLeg  -6.22531 15.5174 12.0715
LeftLeg  7.77111 15.0555 -0.522969
LeftFoot  0.611267 2.2182 -20.963
LeftToes  1.81866e-011 -6.13092e-011 2.52013e-011
1375
root  -49.5855 38.1188 13.0853 -163.159 -50.383 169.109
RightUpLeg  -34.6924 -46.2085 -1.93052
RightLeg  39.7271 -7.1866 -6.6454
RightFoot  -13.4818 -0.0879835 0.171711
RightToes  -1.81608e-008 0 -3.6325e-017
Spine  34.2187 0.520488 -4.78466
Spine1  -20.7089 -0.96512 8.17703
HEad  -40.5768 -12.2582 7.67565
LeftShoulder1  0.838552 -0.148728 -16.2429
LeftArm  5.62484 -26.231 -66.5394
LeftForeArm  1.32299 -48.4782 -12.5921
LeftHand  -0.03053 5.45218 -2.43578
RightShoulder  -0.308115 -4.47844 24.3769
RightArm  -20.2789 -8.34664 23.1453
RightForeArm  21.901 76.4193 58.6619
RightHand  -0.290461 4.56771 -3.66623
LeftUpLeg  -8.16827 18.704 13.6848
LeftLeg  16.0492 4.31824 1.67649
LeftFoot  -1.22483 1.56582 -17.5133
LeftToes  1.81866e-011 -6.13092e-011 2.52013e-011
1376
root  -49.1475 37.8061 12.9816 -165.606 -45.9324 169.808
RightUpLeg  -34.4634 -40.6516 -2.99943
RightLeg  42.2956 -7.65609 -7.68343
RightFoot  -14.3988 -0.109177 -0.43307
RightToes  -1.81608e-008 0 -3.6325e-017
Spine  35.7332 1.18745 -5.91486
Spine1  -20.4314 -0.679958 10.017
HEad  -39.3491 -11.2785 7.25408
LeftShoulder1  0.675921 0.638439 -16.856
LeftArm  4.61992 -26.7245 -65.6226
LeftForeArm  1.47467 -48.8444 -12.7492
LeftHand  -0.0344636 5.79771 -2.61749
RightShoulder  -0.198794 -4.13392 23.8072
RightArm  -19.8835 -6.35071 24.1779
RightForeArm  20.3078 76.1865 57.07
RightHand  -0.329638 4.86736 -4.02684
LeftUpLeg  -7.73584 12.8844 16.1118
LeftLeg  19.1753 0.235967 0.491948
LeftFoot  -2.15657 1.12831 -13.9375
LeftToes  1.81866e-011 -6.13092e-011 2.52013e-011
